<svg id="arrowup" data-name="Layer 1" xmlns="http://www.w3.org/2000/svg" xmlns:xlink="http://www.w3.org/1999/xlink" viewBox="0 0 93.4 77.6"><defs><style>.up_cls-1,.up_cls-3,.up_cls-4{fill:none;}.cls-2{clip-path:url(#up_clip-path);}.up_cls-3,.up_cls-4{stroke:#fff;stroke-linecap:round;stroke-linejoin:round;}.up_cls-3{stroke-width:5px;}.up_cls-4{stroke-width:6px;}</style><clipPath id="up_clip-path" transform="translate(-0.32 -0.38)"><path class="up_cls-1" d="M88.22,15.28c-1.3-1.1-2.9-2.1-4.3-3.2-2.9-2.1-5.7-4.2-8.6-6.3-.7-.5-2-1.2-2.5-.1-.5.9.5,2.5,1.2,3,2.2,1.6,4.4,3.3,6.6,4.9,1,.8,2.1,1.5,3.1,2.3a14.63,14.63,0,0,0,1.3.9,98.94,98.94,0,0,0-41,10.6,89.51,89.51,0,0,0-31.4,26.9,90.66,90.66,0,0,0-11,20c-.1.3,2.4,0,2.5,0,.6-.1,2.1-.2,2.4-.9,9.7-24.5,30.3-44.2,55.6-52a79.08,79.08,0,0,1,22.1-3.5h.5c-.4.6-.8,1.2-1.2,1.7-.9,1.3-1.9,2.6-2.9,3.8a60.55,60.55,0,0,1-6.7,6.7c-1.6,1.3,1.7,5.2,3.2,3.8a60.19,60.19,0,0,0,12.2-14.4C90.32,18,89.62,16.38,88.22,15.28Z"/></clipPath></defs><g class="up_cls-2"><path class="up_cls-3" d="M2.82,75.48S10.92,57.78,18,50s19.6-19.2,30.9-24,17.7-7,25.7-7.9,16.6-.9,16.6-.9" transform="translate(-0.32 -0.38)"/><path class="up_cls-4" d="M69,3.38s18.1,13.8,19,14.5S77.62,30.28,73.42,34" transform="translate(-0.32 -0.38)"/></g></svg>