<svg id="레이어_1" data-name="레이어 1" xmlns="http://www.w3.org/2000/svg" xmlns:xlink="http://www.w3.org/1999/xlink" viewBox="0 0 82.1 81.98"><defs><style>.cls-1,.cls-3{fill:none;}.cls-2{clip-path:url(#clip-path);}.cls-3{stroke:#fff;stroke-linecap:round;stroke-linejoin:round;stroke-width:7px;}</style><clipPath id="clip-path"><path class="cls-1" d="M80.81,59a115.24,115.24,0,0,0-7-10.2,90.19,90.19,0,0,0-9.2-10.3c-1.7-1.7-5.8,1.2-3.9,3.1a102.47,102.47,0,0,1,13.9,16.9c.5.7,1,1.5,1.4,2.2.1.1.2.3.3.4a94,94,0,0,1-37.7-10.7c-12-6.4-20.9-17.6-27-29.6A76,76,0,0,1,4.41.06c-.2-.4-4.6,1.3-4.4,2.6a81.22,81.22,0,0,0,16.9,35.5A55.54,55.54,0,0,0,32,51.66,87.26,87.26,0,0,0,51.41,60a97.18,97.18,0,0,0,23.9,4,3.69,3.69,0,0,0,1.7-.5c-.2.3-.5.6-.7.9-.5.6-1.1,1.1-1.7,1.7a66.06,66.06,0,0,1-8.9,6A130.8,130.8,0,0,1,54,78.26c-1,.5-1.9,1.7-1.4,2.8s2.1,1.1,3.1.6c3.9-1.9,7.8-3.9,11.5-6.1a77.11,77.11,0,0,0,10.3-6.9,21.5,21.5,0,0,0,4-4.5C82.71,62.26,81.91,60.76,80.81,59Z"/></clipPath></defs><g class="cls-2"><path class="cls-3" d="M1.31-1.74s4.4,21,11.3,30.3,12.2,18.1,28.1,25.3,37,9.3,44.3,9.1"/></g><g class="cls-2"><path class="cls-3" d="M59.41,36.16s15.7,18.6,18.4,22.7,2.5,5.7,2.5,5.7l-29.9,18.3"/></g></svg>