<svg id="Layer_1" data-name="Layer 1" xmlns="http://www.w3.org/2000/svg" viewBox="0 0 238.74 238.76"><defs><style>.cls-1{font-size:30px;font-family:BookmanOldStyle, Bookman Old Style;opacity:0.98;}</style></defs><text class="cls-1" transform="translate(119.25 25.13) rotate(2.27)">·</text><text class="cls-1" transform="translate(129.29 25.27) rotate(11.61)">b</text><text class="cls-1" transform="translate(149.41 29.77) rotate(23.3)">e</text><text class="cls-1" transform="translate(165.58 36.92) rotate(34.24)">y</text><text class="cls-1" transform="matrix(0.7, 0.71, -0.71, 0.7, 180.57, 47.33)">o</text><text class="cls-1" transform="matrix(0.53, 0.85, -0.85, 0.53, 193.76, 60.76)">u</text><text class="cls-1" transform="matrix(0.32, 0.95, -0.95, 0.32, 205.39, 79.77)">n</text><text class="cls-1" transform="translate(212.09 100.46) rotate(84.18)">d</text><text class="cls-1" transform="translate(213.63 121.17) rotate(93.94)"> </text><text class="cls-1" transform="translate(212.88 132.98) rotate(102.95)">c</text><text class="cls-1" transform="translate(208.62 150.2) rotate(113.08)">r</text><text class="cls-1" transform="matrix(-0.55, 0.84, -0.84, -0.55, 202.51, 164.3)">e</text><text class="cls-1" transform="matrix(-0.7, 0.71, -0.71, -0.7, 192.76, 179.01)">a</text><text class="cls-1" transform="translate(178.79 192.66) rotate(144.37)">t</text><text class="cls-1" transform="translate(167.49 200.47) rotate(151.99)">i</text><text class="cls-1" transform="translate(157.58 205.83) rotate(160.88)">v</text><text class="cls-1" transform="translate(140.79 211.44) rotate(171.7)">e</text><text class="cls-1" transform="translate(123.16 213.63) rotate(-179.07)"> </text><text class="cls-1" transform="translate(111.16 213.33) rotate(-172.17)"> </text><text class="cls-1" transform="matrix(-0.97, -0.25, 0.25, -0.97, 99.28, 211.5)">·</text><text class="cls-1" transform="translate(89.42 208.83) rotate(-158.57)"> </text><text class="cls-1" transform="matrix(-0.88, -0.48, 0.48, -0.88, 78.33, 204.31)"> </text><text class="cls-1" transform="translate(67.89 198.88) rotate(-141.05)">h</text><text class="cls-1" transform="translate(51.1 185.06) rotate(-127.76)">u</text><text class="cls-1" transform="translate(37.65 167.29) rotate(-114.42)">n</text><text class="cls-1" transform="translate(28.93 147.37) rotate(-101.5)">b</text><text class="cls-1" transform="translate(25.06 127.16) rotate(-89.07)">e</text><text class="cls-1" transform="translate(25.38 109.4) rotate(-79.27)">e</text><text class="cls-1" transform="translate(29.11 91.96) rotate(-70.18)"> </text><text class="cls-1" transform="translate(33.07 80.8) rotate(-61.12)">c</text><text class="cls-1" transform="translate(41.58 65.36) rotate(-49.19)">h</text><text class="cls-1" transform="matrix(0.8, -0.6, 0.6, 0.8, 56.08, 49.13)">o</text></svg>