<svg id="creativesvg" data-name="Layer 1" xmlns="http://www.w3.org/2000/svg" xmlns:xlink="http://www.w3.org/1999/xlink" viewBox="0 0 966.95 441.72"><defs><style>.creative_creative_cls-1,.creative_cls-3,.creative_cls-6{fill:none;}.creative_cls-2{clip-path:url(#creative_clip-path);}.creative_cls-3,.creative_cls-6{stroke:#fff;stroke-linecap:round;stroke-linejoin:round;}.creative_cls-3{stroke-width:33px;}.creative_cls-4{clip-path:url(#creative_clip-path-2);}.creative_cls-5{clip-path:url(#creative_clip-path-3);}.creative_cls-6{stroke-width:23px;}.creative_cls-7{clip-path:url(#creative_clip-path-4);}.creative_cls-8{clip-path:url(#creative_clip-path-5);}</style><clipPath id="creative_clip-path" transform="translate(0.01 -0.11)"><path class="creative_cls-1" d="M704,226.51c2.9,4.4,5.6,6.2,8.2,5.5s6.4-4.4,11.5-10.9c6.2-7.6,8.8-13.7,7.9-18s-5-6.6-12.3-6.6c-2.9,0-6.1,1.8-9.6,5.5a31.6,31.6,0,0,0-7.4,12c-1.1,2.9-1.5,5.2-1.1,6.8A24.55,24.55,0,0,0,704,226.51Z"/></clipPath><clipPath id="creative_clip-path-2" transform="translate(0.01 -0.11)"><path class="creative_cls-1" d="M938.14,255.81c-2.7.9-7.7,5.6-15,13.9a446.61,446.61,0,0,1-31.4,32.5,342.24,342.24,0,0,1-28.1,23.8c-8.4,6.2-15.2,10.2-20.5,12s-8.1.7-8.5-3.3c-.7-5.8-.3-10.1,1.4-12.8s5.4-6.1,11.2-10.1a149.07,149.07,0,0,0,18-15,143.42,143.42,0,0,0,14.2-15.8,85.45,85.45,0,0,0,9.3-15q3.3-7,2.7-12c-.4-4-1-6.4-1.9-7.1s-3.7-1.3-8.5-1.6c-3.6-.4-6.5-.1-8.5.8s-5.7,3.4-11.2,7.4a134.46,134.46,0,0,0-15,13.4c-2.1,0-4.5.1-7.4.2a62.49,62.49,0,0,0-6.6.3,54.66,54.66,0,0,1-6,.3l-7.1-7.6a14.29,14.29,0,0,1-4.4-10.4q0-5,6-18c3.6-6.9,5.7-13.3,6.3-19.1s-.6-9.3-3.6-10.4q-2.7-.6-6.6,2.7a42.2,42.2,0,0,0-7.4,8.5,84.36,84.36,0,0,0-6.6,11.5,37.23,37.23,0,0,0-3.6,12.3c-.7,2.6-2.9,6.9-6.6,13.1s-10,16.2-19.1,30c-12,17.5-20.8,30-26.2,37.7s-9.1,11.5-10.9,11.5c-1.1,0-1.4-2-.8-6a100.18,100.18,0,0,1,3.3-14.8c1.6-5.8,3.6-12.2,6-19.1s4.8-13.3,7.4-19.1c4.4-9.5,6.7-16.4,7.1-20.8s-1.5-7.3-5.5-8.7c-6.6-2.9-13.8,4.7-21.9,22.9-1.8,5.1-3.7,11-5.7,17.8-.4,1.4-.8,2.9-1.3,4.3-2.2,1.5-4.6,3.1-7.2,4.7L713,294c-6.9,4.4-14.1,8.8-21.6,13.4a115.65,115.65,0,0,1-18.8,9.6c-.7-.4-.1-2.5,1.9-6.3s5.5-10.5,10.7-19.9c6.2-12.4,9.5-20.7,9.8-24.9s-2.2-6.3-7.6-6.3c-3.3,0-7.6,3.2-12.8,9.6s-10.7,15-16.1,25.9c-.5,1-.9,1.9-1.3,2.8q-4.5,5.55-9.6,11.7c-6.6,7.8-13.1,15.3-19.7,22.4s-12.7,13.3-18.3,18.6-9.7,8.6-12.3,10.1l-3.8,2.2V358c0-6.9,1.2-15.7,3.6-26.2a278.05,278.05,0,0,1,9.8-33.3c4.2-11.7,8.9-23.5,14.2-35.5a288.17,288.17,0,0,1,17.2-33.3,89.28,89.28,0,0,1,6.6-12l18-1.1c12.7-1.1,20.5-2.5,23.2-4.1s.6-4.5-6.3-8.5c-2.2-1.5-8.4-1.8-18.6-1.1-4.4,1.1-7.1,2.2-8.2,3.3l13.1-15.8c3.6-5.1,7.1-9.6,10.4-13.7s6.4-7.8,9.3-11.5,5.6-7,8.2-10.1,3.8-5,3.8-5.7c0-1.5-1.4-3.6-4.1-6.3s-4.6-4.1-5.7-4.1c-2.9,0-8.2,4.6-15.8,13.7a419.48,419.48,0,0,0-25.7,35L635,203.51c-1.1.7-4.3,1.2-9.6,1.4s-11.9.5-19.9.8a33,33,0,0,1-6,.5H594c-7.8.7-12.9,1.5-15.4,2.2s-3.9,2-4.2,3.8c-1.1,7.3,4.2,10.2,15.8,8.7a88.38,88.38,0,0,1,11.2-1.9c4.5-.5,9.2-1,13.9-1.4l12.6-1.1a21.84,21.84,0,0,1-2.7,4.4,22.58,22.58,0,0,0-2.7,3.8,200.75,200.75,0,0,0-10.1,17.5c-3.8,7.3-7.7,15-11.7,23.2l-3,6.3c-5.5,5-13.9,14.1-25.4,27.3-7.3,8.4-13.5,14.9-18.6,19.7s-8,7.1-8.7,7.1c-.4-.7,0-3.8,1.1-9.3s3.1-15.8,6-31.1c2.2-10.9,3.5-18.2,3.8-21.9a15.6,15.6,0,0,0-1.6-9.3h.5c-2.6-5.8-5.6-8.5-9-7.9s-9.2,5-17.2,13.4c-4,3.6-6.6,6-7.6,7.1s-1.6,1.8-1.6,2.2c-1.1-2.2-3.6-3.9-7.4-5.2a27.36,27.36,0,0,0-9-1.5c-.2-5-1.5-7-4.1-6.2s-7.7,5.6-15,13.9a446.61,446.61,0,0,1-31.4,32.5,342.24,342.24,0,0,1-28.1,23.8c-8.4,6.2-15.2,10.2-20.5,12s-8.1.7-8.5-3.3c-.7-5.8-.3-10.1,1.4-12.8s5.4-6.1,11.2-10.1a149.07,149.07,0,0,0,18-15,143.42,143.42,0,0,0,14.2-15.8,85.45,85.45,0,0,0,9.3-15q3.3-7.05,2.7-12c-.4-4-1-6.4-1.9-7.1s-3.7-1.3-8.5-1.6c-3.6-.4-6.5-.1-8.5.8s-5.7,3.4-11.2,7.4a132,132,0,0,0-17.5,16.1l-4.5,5.1c-1.7,1.8-3.4,3.8-5.4,6.1-4,4.7-8.7,10.4-14.2,16.9s-11,13.1-16.7,19.7-11.1,12.9-16.4,19.1-9.7,11.1-13.4,14.8l2.2-4.4,3.3-6a83.41,83.41,0,0,1,5.2-10.9c2.7-5.1,5.9-10.6,9.6-16.4s7.3-11.6,10.9-17.2,6.9-10.5,9.8-14.5l8.2-9.3c1.5-1.8,3.3-3.9,5.5-6.3s4-4.5,5.5-6.3c6.6-7.3,10.4-12.5,11.5-15.6s0-5.9-3.3-8.5a7.4,7.4,0,0,0-5.7-2.5c-2,.2-5.6,1.4-10.7,3.6-4,1.8-8.8,3.6-14.5,5.5s-11.4,3.6-17.2,5.2-11.5,3.2-16.9,4.6-10,2.6-13.7,3.3c-8.4,2.2-13.7,4-16.1,5.5s-3.6,4.2-3.6,8.2q0,5.4,3,8.1a59.38,59.38,0,0,0-6.2,4.4c-5.8,4.4-11.3,8.4-16.4,12s-11.2,7.9-18.3,12.8-16.1,11-27,18.3-25,16.6-42.1,27.9q-34.35,23-61.7,37.4c-18.2,9.6-35,16.5-50.3,20.5a93.84,93.84,0,0,1-22.4,3.3,47.28,47.28,0,0,1-19.4-3.8,29.94,29.94,0,0,1-13.4-12,23.56,23.56,0,0,1-3.3-7.6c-.4-2.2-.5-6.7-.5-13.7a88.45,88.45,0,0,1,3-23.5c2-7.3,5.7-17.1,11.2-29.5a327.69,327.69,0,0,1,27.3-46.4,396.74,396.74,0,0,1,36.6-45.1,426.13,426.13,0,0,1,43.4-40.4,368.63,368.63,0,0,1,47.8-33.1h-.5q31.65-18,57.4-23.5a176.2,176.2,0,0,1,17.5-3.3,19.5,19.5,0,0,1,10.9,2.2c6.6,2.2,9.8,7.1,9.8,14.8,0,6.6-2.4,14.9-7.1,25.1a219.47,219.47,0,0,1-19.7,33.3c-6.2,8.4-9.5,14.3-9.8,17.8s2,5.2,7.1,5.2c2.9,0,6.7-2.4,11.5-7.1a122,122,0,0,0,14.2-17.5,214.8,214.8,0,0,0,13.1-21.9,96.17,96.17,0,0,0,8.2-20.2,108.43,108.43,0,0,0,1.9-12.3,42.78,42.78,0,0,0-.8-10.1c-2.2-8-5.7-13.9-10.4-17.8s-12.2-6.3-22.4-7.4c-8.4-.7-18.1.4-29.2,3.3a219.1,219.1,0,0,0-36.6,13.7,457.65,457.65,0,0,0-42.1,22.7,501.38,501.38,0,0,0-44.5,30.3q-42,33.3-72.1,73.5t-42.6,82.8a87.57,87.57,0,0,0-3.8,17.5,160.84,160.84,0,0,0-1.1,18,101.38,101.38,0,0,0,.8,12.6,31,31,0,0,0,3,10.4h-.5a50.37,50.37,0,0,0,16.4,20.2A62.34,62.34,0,0,0,50.74,433c10.6,1.8,24.3-.1,41.2-5.7s36.3-14.8,58.2-27.6c6.9-3.6,15.7-8.7,26.2-15.3s21.6-13.5,33.1-20.8,22.7-14.7,33.6-22.1,20.4-14.1,28.4-19.9l37.1-26.2c8-6.2,13.5-10.7,16.4-13.4a10.17,10.17,0,0,0,3-4.4c3.1-1.1,6.5-2.3,10.1-3.7,5.1-2,10.4-4,15.8-6s10.4-3.9,14.8-5.7a23,23,0,0,1-3,4.1,107.7,107.7,0,0,0-6.8,8.5c-7.3,9.5-14,18.8-20.2,28.1s-11.6,18-16.1,26.2a214.27,214.27,0,0,0-10.9,22.4c-2.7,6.7-4.3,12.3-4.6,16.7-1.1,5.5-1.5,9-1.1,10.7s1.6,3.7,3.8,6.3v-.5c2.2,2.5,4.3,4.2,6.3,4.9s4.3.2,6.8-1.6a65.18,65.18,0,0,0,9.6-9.3q5.7-6.6,15-18l7.6-9.8c7.3-8.7,14.3-17.2,21-25.4,0-.1.1-.1.1-.2a54.77,54.77,0,0,0-.4,7q0,18.6,12.6,24c6.9,3.3,15.1,2.5,24.6-2.2s21.1-13.8,35-27.3c4.3-4,8.6-8.3,13.1-12.8a32.57,32.57,0,0,0-.5,5.2c0,4.4,1,7.9,3,10.7s5.6,4.1,10.7,4.1c3.6,0,8.1-2.4,13.4-7.1s14.1-14,26.5-27.9c1.8-2.2,3.8-4.6,6-7.4s4.7-5.5,7.6-8.5l4.4-4.9-1.1,4.4a223.19,223.19,0,0,0-5.7,22.9,93.52,93.52,0,0,0-1.9,18c0,8.7,2,15.7,6,20.8,2.2,2.9,4.4,4.7,6.6,5.5s5,.1,8.5-1.9,7.7-5.7,12.8-10.9,11.8-12.5,20.2-21.6l4.1-4.7a161.65,161.65,0,0,0-6.3,23.8,116.64,116.64,0,0,0-2.2,21.3c0,10.9,2,18.4,5.9,22.4v-.5c2.5,3.3,6.2,4.9,11.2,4.9a27.59,27.59,0,0,0,5.4-.5,15.16,15.16,0,0,0,4.9-2.5,78.65,78.65,0,0,0,7.1-6c2.9-2.7,6.6-6.3,10.9-10.7,6.9-7.3,14-15.1,21.3-23.5q6.3-7.2,12-14.1a15.08,15.08,0,0,0,4.4,6.4c6.2,5.1,14.9,4.9,26.2-.5a139,139,0,0,0,18.3-10.4c6.7-4.4,13.1-8.9,19.1-13.7a1.76,1.76,0,0,0,.5-.4q-1.5,6.9-2.4,12.9c-.7,5.5-.9,9.5-.5,12a31.23,31.23,0,0,0,4.4,12.8q3.3,5.25,6.6,5.7c7.3,2.2,15.6-1.6,24.9-11.5s21.4-27.1,36.3-51.9l13.7-21.3c.7.7.9,1.2.5,1.4s-.2.6.5,1.4a28.77,28.77,0,0,0,12,10.9,36.51,36.51,0,0,0,16.9,3.8h.5c-1.5,2.1-3,4.2-4.3,6.3a100.09,100.09,0,0,0-10.4,21,67.31,67.31,0,0,0-3.8,21.9q0,18.6,12.6,24c6.9,3.3,15.1,2.5,24.6-2.2s21.1-13.8,35-27.3c6.2-5.8,12.6-12.2,19.1-19.1s12.5-13.4,17.8-19.4,9.6-11.3,13.1-15.8,5.2-7.4,5.2-8.5C942.24,257.31,940.84,254.81,938.14,255.81Zm-605,98.6v-1.6C333.54,352.71,333.54,353.31,333.14,354.41Zm152.4-48.7c.1-.1.2-.3.3-.4l.3-.1C486.14,305.61,485.94,305.71,485.54,305.71Zm17.2-19.1a73.33,73.33,0,0,1-6.8,8.2v-.5l-5.5,5.5c1.5-1.8,2.9-3.6,4.4-5.5s2.7-3.5,3.8-4.9c2.2-2.5,3.6-4.2,4.1-4.9a2.22,2.22,0,0,0,.3-2.2A4.18,4.18,0,0,1,502.74,286.61Z"/></clipPath><clipPath id="creative_clip-path-3" transform="translate(0.01 -0.11)"><path class="creative_cls-1" d="M184.84,26.91a299.58,299.58,0,0,0,19.3,34.6c4.9,7.5,20-2.4,15.1-9.9A293.12,293.12,0,0,1,199.94,17c-3.7-7.9-18.9,1.7-15.1,9.9Z"/></clipPath><clipPath id="creative_clip-path-4" transform="translate(0.01 -0.11)"><path class="creative_cls-1" d="M334,25.81c-1.2,4.3-5.5,7.4-8.6,10.4-3.8,3.7-7.5,7.4-11.3,11-7.5,7.4-15,14.7-22.6,22.1-4.7,4.6,8.6,16.7,13.6,11.8l24-23.4c3.8-3.7,7.5-7.4,11.3-11,3.5-3.4,7.1-6.6,8.4-11.5,1.7-6.2-12.9-16.5-14.8-9.4Z"/></clipPath><clipPath id="creative_clip-path-5" transform="translate(0.01 -0.11)"><path class="creative_cls-1" d="M437.14,66.81q-29.55,21.45-60,41.8c-5.3,3.6,3.9,19,9,15.6,20.2-13.6,40.2-27.6,60-41.8,5.2-3.8-4.1-19.1-9-15.6Z"/></clipPath></defs><g class="creative_cls-2"><line class="creative_cls-3" x1="731.85" y1="193.7" x2="702.85" y2="231.6"/></g><g class="creative_cls-4"><path class="creative_cls-3" d="M255.54,235.41s31.1-37.5,36.9-54.3,12.1-44.8,1.6-50.1-34.3-15.3-91.8,14.2-95.5,62.8-126.1,101.3-58.5,78.1-59.6,120.3,16.4,59.1,36.9,58.5,70.2-16.9,99.2-34.3,124.5-84.4,124.5-84.4l51.2-38" transform="translate(0.01 -0.11)"/><path class="creative_cls-3" d="M301.94,269.21s57-13.2,71.7-19a234.05,234.05,0,0,1,24.8-8.4S357.84,284,343,313s-34.3,79.6-34.3,79.6l72.8-85.5" transform="translate(0.01 -0.11)"/><path class="creative_cls-3" d="M387.94,313s44.8-32.7,50.1-43.3,1.6-17.4-7.4-11.6-46.4,46.4-44.8,63.3,3.7,32.2,15.3,26.4,59.1-40.1,73.3-57,31.6-36.4,31.6-36.4" transform="translate(0.01 -0.11)"/><path class="creative_cls-3" d="M517.14,280.81s-2.6-13.7-13.2-9.5-26.9,17.4-29,30.1.5,18.5.5,18.5,23.2-12.1,30.6-22.2,38.5-40.1,38.5-40.1-7.9,32.7-9,44.3-5.8,35.9,1.6,34.8,63.8-53.8,63.8-53.8" transform="translate(0.01 -0.11)"/><line class="creative_cls-3" x1="570.95" y1="214.8" x2="693.35" y2="207.9"/><path class="creative_cls-3" d="M697.54,139.41s-45.9,48-69.1,90.2-47.5,95.5-45.9,113.4-2.6,35.3,9,29.5,74.9-72.3,74.9-72.3" transform="translate(0.01 -0.11)"/><path class="creative_cls-3" d="M687,266s-18.5,27.4-20,41.7-1.1,21.6,6.9,17.9,61.2-36.4,61.2-36.4" transform="translate(0.01 -0.11)"/><path class="creative_cls-3" d="M756.64,232.81s-25.8,61.2-27.4,75.4-.5,34.3,4.2,32.7,64.4-79.6,64.4-79.6,22.4-36,24.4-42.7-.4-10.3-4-6.3-14.2,17-12.7,27.3,4,23.7,11.1,28.9,30.1,9.5,30.1,9.5" transform="translate(0.01 -0.11)"/><path class="creative_cls-3" d="M838,304.81s27.7-21.8,36-33.2,7.1-19.4-1.2-12.7-32,21-38.4,42.7-7.9,31.3-5.1,38.4,11.5,10.3,18.6,6.7,56.6-44.7,64.9-55,37.6-41.1,37.6-41.1" transform="translate(0.01 -0.11)"/></g><g class="creative_cls-5"><line class="creative_cls-6" x1="186.55" y1="11.5" x2="218.15" y2="65.8"/></g><g class="creative_cls-7"><line class="creative_cls-6" x1="353.15" y1="21.5" x2="290.45" y2="83.2"/></g><g class="creative_cls-8"><line class="creative_cls-6" x1="452.35" y1="67.9" x2="369.55" y2="123.9"/></g></svg>