<svg id="레이어_1" data-name="레이어 1" xmlns="http://www.w3.org/2000/svg" xmlns:xlink="http://www.w3.org/1999/xlink" viewBox="0 0 491.4 88.4"><defs><style>.cls-1,.cls-3{fill:none;}.cls-2{clip-path:url(#clip-path);}.cls-3{stroke:#fff;stroke-linecap:round;stroke-linejoin:round;stroke-width:13px;}</style><clipPath id="clip-path"><path class="cls-1" d="M340.3,67.8A855.29,855.29,0,0,0,236.8,79.2c.4,1.6.9,3.2,1.3,4.8,34-11.4,68.6-20.7,103.2-30.3,15.7-4.3,31.2-9.2,46.9-13.5,14.6-4,29.4-7.8,43.9-12.2A342.63,342.63,0,0,0,479.9,9.4c2.7-1.3.7-5-1.9-4.6Q387.7,20.7,297.1,35.3T115.8,63.2q-51,7.5-102.2,14.5c-3.2.4-1.8,5.3,1.3,4.8q90.9-12.15,181.6-26.2t181.1-29q50.85-8.55,101.7-17.5c-.6-1.5-1.3-3-1.9-4.6A327.87,327.87,0,0,1,435,22c-14.1,4.4-28.4,8.1-42.6,12-15.8,4.3-31.5,9.1-47.2,13.6-15.5,4.3-31.1,8.5-46.6,12.9-20.7,5.8-41.3,12-61.7,18.8a2.49,2.49,0,0,0,1.3,4.8A834.58,834.58,0,0,1,340.3,72.8c3.2-.2,3.2-5.2,0-5Z"/></clipPath></defs><g class="cls-2"><polyline class="cls-3" points="6.5 80.9 484.9 6.5 228 81.9 350.9 69.3"/></g></svg>