<svg id="flowsvg" data-name="Layer 1" xmlns="http://www.w3.org/2000/svg" xmlns:xlink="http://www.w3.org/1999/xlink" viewBox="0 0 301.5 42.08"><defs><style>.flow_cls-1,.flow_cls-3{fill:none;}.flow_cls-2{clip-path:url(#flow_clip-path);}.flow_cls-3{stroke:#fff;stroke-linecap:round;stroke-linejoin:round;stroke-width:10px;}</style><clipPath id="flow_clip-path" transform="translate(-0.31 0.29)"><path class="flow_cls-1" d="M12.91,33.4c5.8-7.8,15.2-13.2,25.2-12.3,10.3.8,19.5,7.6,28.9,11.4,17.8,7.2,38.4,9.9,56.6,2.2,8.9-3.8,14.9-9.8,21.3-16.8,7.3-8,16.9-10.1,27.5-10.5,22.1-.7,42.9,7.4,62,17.7,8.9,4.8,18.3,9.3,28.7,8,10.6-1.3,19.5-8,29.7-10.6,1.8-.5,1.7-1.9.7-3.1-1.2-1.4-3.9-1.6-5.5-1.2-9.6,2.4-18.1,9-28,10.3-10.8,1.4-20.8-6.6-30.1-11.2-18.3-8.9-38.3-15-58.9-14.6-9.1.2-19.1,1.2-26.9,6.4-8,5.4-12.6,14.1-21.1,19-20.9,12.1-44.2,5.1-64.4-4.7-9.2-4.5-18.9-8.2-29.3-6.8a35.71,35.71,0,0,0-23.7,14c-2,2.7,5.6,5.1,7.3,2.8Z"/></clipPath></defs><g class="flow_cls-2"><path class="flow_cls-3" d="M5.31,36.2s5.7-9.7,16.2-13.8,12.7-6.5,26.1-1.4,29.7,15.2,42.2,15.6,27.3.8,35.2-5.5,17.4-20,25.5-22.4,22.9-6.7,43.1-1.6,29.9,9.3,42.7,16,23.1,10.5,32.6,6.5,27.9-11.7,27.9-11.7" transform="translate(-0.31 0.29)"/></g></svg>