<svg id="레이어_1" data-name="레이어 1" xmlns="http://www.w3.org/2000/svg" viewBox="0 0 650.25 115.79"><defs><style>.cls-1{fill:#fff;}.cls-2{fill:none;stroke:#fff;stroke-miterlimit:10;stroke-width:0.25px;}</style></defs><path class="cls-1" d="M472.29,39.84q-5.16,0-12,9.67t-6.83,16q0,4.5,3,4.5,4.29,0,11.91-8.68T476,45.43C476,41.7,474.73,39.84,472.29,39.84ZM278.22,43.49A6.83,6.83,0,0,0,276,41.05a6.38,6.38,0,0,0-3.56-.92c-2.24,0-4,1.14-5.36,3.4s-2,5.91-2,10.92q0,7.92,1.76,11a5.91,5.91,0,0,0,5.52,3.12,6,6,0,0,0,2.88-.72,6.85,6.85,0,0,0,2.36-2.08,10.9,10.9,0,0,0,1.6-3.28,14.15,14.15,0,0,0,.6-4.24V50.77a20.8,20.8,0,0,0-.36-3.84A11.38,11.38,0,0,0,278.22,43.49ZM429.59,40.9c0-1.57-.7-2.35-2.11-2.35q-3.6,0-8.1,5.28A30.33,30.33,0,0,0,413,56.72Q429.59,46.86,429.59,40.9ZM153.3,39.81a6.71,6.71,0,0,0-6.44,3.88q-2,3.89-2,10.76t2,10.72a7.15,7.15,0,0,0,12.76,0q2-3.91,2-10.72t-2-10.76A6.66,6.66,0,0,0,153.3,39.81ZM35.1,41.89a6.34,6.34,0,0,0,2.72-1,5.06,5.06,0,0,0,1.8-2.28,10.07,10.07,0,0,0,.64-4c0-2.34-.65-4-2-5a8.91,8.91,0,0,0-5.56-1.52H26.1V42.13h5.68A21.78,21.78,0,0,0,35.1,41.89Zm4.32,9.24a6.85,6.85,0,0,0-3.08-1.36,22.21,22.21,0,0,0-4.24-.36h-6V67.25h6.8a10.54,10.54,0,0,0,6.6-1.88q2.45-1.87,2.44-6.68A14.53,14.53,0,0,0,41.3,54,6.1,6.1,0,0,0,39.42,51.13Zm34.44-11q-6.87,0-8.48,8.4l15.44-.24Q80,40.13,73.86,40.13Zm548.58.77c0-1.57-.7-2.35-2.11-2.35-2.39,0-5.1,1.76-8.1,5.28a30.33,30.33,0,0,0-6.35,12.89Q622.44,46.86,622.44,40.9ZM.12.12v100h650V.12Zm50,65.77a13.52,13.52,0,0,1-3.56,4.84,15.6,15.6,0,0,1-5.48,3,22.76,22.76,0,0,1-7,1H17.22V20.53H34.1a18.66,18.66,0,0,1,5.64.88A15.78,15.78,0,0,1,44.66,24a12.88,12.88,0,0,1,3.48,4.16,11.93,11.93,0,0,1,1.32,5.68,11.58,11.58,0,0,1-2.2,7.32A14.22,14.22,0,0,1,42,45.41a13.55,13.55,0,0,1,6.76,4.8c1.74,2.29,2.6,5.33,2.6,9.12A15.87,15.87,0,0,1,50.1,65.89ZM89.86,55.25H65.14a25,25,0,0,0,.52,5.2,12.27,12.27,0,0,0,1.68,4.16,8.65,8.65,0,0,0,3,2.8,9.1,9.1,0,0,0,4.56,1,14.23,14.23,0,0,0,2.88-.32,31,31,0,0,0,3.28-.84A21,21,0,0,0,84.34,66a18.23,18.23,0,0,0,2.88-1.76h1.12v7.68a20.45,20.45,0,0,1-6.12,3,27,27,0,0,1-7.48.92,20.58,20.58,0,0,1-8.44-1.56,15.09,15.09,0,0,1-5.76-4.44A18.5,18.5,0,0,1,57.22,63a34.62,34.62,0,0,1-1-8.76,32.72,32.72,0,0,1,1.08-8.76,18.61,18.61,0,0,1,3.28-6.64,14.47,14.47,0,0,1,5.56-4.24,19.7,19.7,0,0,1,8-1.48,16.37,16.37,0,0,1,7,1.4,13.67,13.67,0,0,1,4.92,3.84,15.75,15.75,0,0,1,2.88,5.84,27.7,27.7,0,0,1,.92,7.32Zm27.52,19.68a48.64,48.64,0,0,1-2.48,6.2,18.33,18.33,0,0,1-2.8,4.28,9.53,9.53,0,0,1-3.44,2.48,11.4,11.4,0,0,1-4.4.8,24.24,24.24,0,0,1-3-.2,30.78,30.78,0,0,1-3.72-.76V80.85h1.12a15.38,15.38,0,0,0,2.44.68,11.58,11.58,0,0,0,2,.28,5.4,5.4,0,0,0,3.16-.92,7.33,7.33,0,0,0,2.28-3.72q.24-.8.48-1.56c.16-.5.48-1.56,1-3.16l-7.48-19.28q-3.87-10-7.48-19.2h9.52l8.48,24.56.72,3.92.88-3.6L122.42,34h9ZM169.5,62.81a19,19,0,0,1-2.8,6.76,13.76,13.76,0,0,1-5.24,4.56,17.75,17.75,0,0,1-8.16,1.68A18.28,18.28,0,0,1,145,74.13a13.81,13.81,0,0,1-5.28-4.56A18.73,18.73,0,0,1,137,62.81a41.55,41.55,0,0,1-.8-8.36,39.48,39.48,0,0,1,.84-8.36,19.14,19.14,0,0,1,2.8-6.76,13.91,13.91,0,0,1,5.24-4.56,18,18,0,0,1,8.24-1.68,17.34,17.34,0,0,1,8,1.68,14.22,14.22,0,0,1,5.24,4.56,18.92,18.92,0,0,1,2.88,6.8,37.77,37.77,0,0,1,.88,8.32A39.41,39.41,0,0,1,169.5,62.81Zm39.08,12h-8.16l-.24-5.44a11.87,11.87,0,0,1-4.36,4.72,10.22,10.22,0,0,1-5.24,1.52,14.52,14.52,0,0,1-6.6-1.28,9.71,9.71,0,0,1-4-3.6,14.31,14.31,0,0,1-1.92-5.48,46.75,46.75,0,0,1-.48-7V34h8.64v24.4q0,5.68,1.32,8c.88,1.52,2.42,2.28,4.6,2.28a5.64,5.64,0,0,0,3.08-.88,7.82,7.82,0,0,0,2.44-2.48,13.09,13.09,0,0,0,1.64-3.8,18.33,18.33,0,0,0,.6-4.84V34h8.64Zm40.24,0h-8.64V50.37q0-5.68-1.32-8t-4.6-2.28a5.66,5.66,0,0,0-3.08.88,8.14,8.14,0,0,0-2.44,2.48,13.62,13.62,0,0,0-1.64,3.8,18.38,18.38,0,0,0-.6,4.84V74.77h-8.64V34H226l.24,5.44a12.08,12.08,0,0,1,4.36-4.72,10.34,10.34,0,0,1,5.24-1.52,14.66,14.66,0,0,1,6.6,1.28,9.78,9.78,0,0,1,4,3.6,14.37,14.37,0,0,1,1.92,5.48,46.85,46.85,0,0,1,.48,7Zm39.6,0H280.5l-.56-5.2a9.11,9.11,0,0,1-3.88,4.72,9.6,9.6,0,0,1-4.84,1.52,14,14,0,0,1-7.44-1.76,12.53,12.53,0,0,1-4.52-4.76A21.69,21.69,0,0,1,257,62.41a51.06,51.06,0,0,1-.64-8.2,42.57,42.57,0,0,1,.68-7.52,22.58,22.58,0,0,1,2.32-6.76,14,14,0,0,1,4.4-4.88,12.05,12.05,0,0,1,6.92-1.88,9.78,9.78,0,0,1,5,1.44,11.43,11.43,0,0,1,4.16,4.4V18h8.64Zm61-1q-7,4.5-13.71,4.51c-3.9,0-6.91-1.12-9-3.36s-3.15-5.38-3.15-9.42q0-10.19,8.09-21.5t15-11.31q3.17,0,5.45,3.42a12.83,12.83,0,0,1,2.28,7.25,7.61,7.61,0,0,1-1,4c-.67,1.11-1.34,1.66-2,1.66q-2.26,0-3.21-4.57c-.7-3.28-1.72-4.92-3-4.92q-4.06,0-9.61,9.65T330,65.43q0,6.63,7.54,6.64,5.74,0,13.51-5.39c1.83-1.28,3.17-1.92,4-1.92s1.33.51,1.33,1.53Q356.43,69.26,349.43,73.77Zm54.09-30.06a2.78,2.78,0,0,1-2.33,1,4.11,4.11,0,0,1-3-1.44,4.1,4.1,0,0,0-2.93-1.45q-4,0-11.25,9.85a46.68,46.68,0,0,0-8.75,21.68c-.26,2-.75,3.37-1.48,4a4.49,4.49,0,0,1-3.09,1c-1.27,0-2.2-.95-2.77-2.85a37.46,37.46,0,0,1-.86-9.61c0-1.23.07-3.92.2-8.09a102.75,102.75,0,0,1,.93-11.91q.12-.75.39-3.48a20,20,0,0,1,.69-4.18A5,5,0,0,1,370.94,36a4.33,4.33,0,0,1,2.75-1,2.58,2.58,0,0,1,2.17.92,3.11,3.11,0,0,1,.72,2,17.1,17.1,0,0,1-.78,4.29,33.91,33.91,0,0,0-1.05,4.26,24.8,24.8,0,0,1-.43,2.78,73.89,73.89,0,0,0-.78,8.82l0,1.45v1c.26-.46.57-1.12.93-1.95A68.53,68.53,0,0,1,379.32,49a63.91,63.91,0,0,1,4.9-6.62,31,31,0,0,1,4.88-4.81,16.06,16.06,0,0,1,4-2.28,10.21,10.21,0,0,1,3.47-.65,7.69,7.69,0,0,1,5.55,2.06,6.41,6.41,0,0,1,2.15,4.78A3.51,3.51,0,0,1,403.52,43.71Zm29.61,28.71Q426.07,78,418.57,78q-6.29,0-9.7-3.71T405.45,64q0-11.17,7.54-21.25t16.48-10.08a6.44,6.44,0,0,1,6.64,6.53q0,6-5.89,11.52a75.87,75.87,0,0,1-15.79,10.82,3.13,3.13,0,0,0-2,2.73,7.18,7.18,0,0,0,1.88,5.2,7.34,7.34,0,0,0,5.54,2q8.4,0,17.15-9.29c.86-.86,1.51-1.29,2-1.29.83,0,1.25.66,1.25,2Q440.18,66.8,433.13,72.42Zm51.69,4.12a5.53,5.53,0,0,1-3.24,1.23c-2,0-3.66-1.38-5-4.14s-1.95-6.69-1.95-11.8a47.86,47.86,0,0,1-10.82,11q-5.36,3.68-9.81,3.67A6.66,6.66,0,0,1,448.85,74a9.63,9.63,0,0,1-2.19-6.52q0-10.27,9.18-22.13t18.24-11.86q3.29,0,4.89,3.75a1.68,1.68,0,0,0,1.6,1.25q3.12,0,3.12,2.43a19.54,19.54,0,0,1-.39,3.32q-2.1,11.52-2.11,16.25,0,9.45,3.6,11.32a2.72,2.72,0,0,1,1.71,2.31A3.29,3.29,0,0,1,484.82,76.54ZM524.75,41.4c-3.78.24-7.26.56-10.43,1s-4.89.76-5.14,1-1,3.37-2.36,9.29-2,9.77-2,11.54q0,4.31,1.14,5.73a4.07,4.07,0,0,0,3.4,1.42q3.36,0,9.33-5c1.54-1.38,2.72-2.07,3.56-2.07q1.68,0,1.68,1.8c0,1.88-1.81,4.3-5.41,7.29s-7.3,4.47-11.08,4.47q-9.45,0-9.45-11.13a62,62,0,0,1,1.95-12.47q1.92-8.39,1.92-10.07c0-.39-.32-.59-.94-.59l-4.06.35c-3.34,0-5-1.33-5-4a2,2,0,0,1,2.3-2.27h8a1.82,1.82,0,0,0,1.44-.74q.63-.73,1.84-5c.81-2.83,1.52-5.62,2.15-8.38s1.85-4.1,3.67-4.1a3.18,3.18,0,0,1,2.62,1.17,3.61,3.61,0,0,1,.93,2.19,50,50,0,0,1-1.4,5.58l-2.27,8.21q4-.31,7.58-.74a55.21,55.21,0,0,1,5.86-.4c2,0,3.23.19,3.75.55a2.18,2.18,0,0,1,.78,1.92Q529.16,41.14,524.75,41.4Zm19.84.63A146.67,146.67,0,0,0,541,56.79a68.74,68.74,0,0,0-.71,10.59,31.67,31.67,0,0,0,.82,6.68,5.28,5.28,0,0,1,.16,1.17c0,.47-.43,1.08-1.29,1.82a4.13,4.13,0,0,1-2.73,1.11q-3.8,0-3.79-7,0-7.18,3-22.74a55.52,55.52,0,0,0,1-6.68,9,9,0,0,1,.9-4.2,2.79,2.79,0,0,1,2.54-1.73,4.78,4.78,0,0,1,3.14,1,2.76,2.76,0,0,1,1.16,2.13A12.14,12.14,0,0,1,544.59,42Zm7-23.52a6.52,6.52,0,0,1-3,4.16,7.89,7.89,0,0,1-3.19,1.08c-.55,0-1-.59-1.25-1.76a10.56,10.56,0,0,0-.43-1.21,11.87,11.87,0,0,1-1.05-4.42,4.45,4.45,0,0,1,1.85-3.18,6.12,6.12,0,0,1,4.12-1.62,4.85,4.85,0,0,1,2.54.88c.94.58,1.41,1.15,1.41,1.7A17.27,17.27,0,0,1,551.6,18.51ZM594,41.68q-3,2-8.86,10.19a192,192,0,0,0-12.66,20.82Q569,79.1,567.13,79.1q-1.64,0-3.71-2.58.08-2.26-3.32-11.72-6.45-17.61-6.45-24.53c0-3.67,1.23-5.51,3.67-5.51s3.6,1.64,3.6,4.92a57.13,57.13,0,0,0,.25,6.2A64.18,64.18,0,0,0,563,53.81q1.61,5.76,3.51,10.68c.65,1.72,1.12,3,1.41,3.94.55-.83,1.25-2,2.11-3.43q6.87-11.56,11-17.82a78.35,78.35,0,0,1,6.66-9.1,15.47,15.47,0,0,1,3.79-3.41,5.67,5.67,0,0,1,2.46-.57,2.92,2.92,0,0,1,2.4,1.09,3.91,3.91,0,0,1,.88,2.5Q597.21,39.54,594,41.68Zm32,30.74Q618.93,78,611.43,78q-6.3,0-9.71-3.71T598.3,64q0-11.17,7.54-21.25t16.48-10.08A6.46,6.46,0,0,1,629,39.18q0,6-5.9,11.52a76,76,0,0,1-15.78,10.82,3.12,3.12,0,0,0-2,2.73,7.18,7.18,0,0,0,1.88,5.2,7.35,7.35,0,0,0,5.55,2q8.39,0,17.14-9.29c.86-.86,1.51-1.29,2-1.29.83,0,1.25.66,1.25,2Q633,66.8,626,72.42Z"/><path class="cls-2" d="M472.29,39.84q-5.16,0-12,9.67t-6.83,16q0,4.5,3,4.5,4.29,0,11.91-8.68T476,45.43C476,41.7,474.73,39.84,472.29,39.84ZM278.22,43.49A6.83,6.83,0,0,0,276,41.05a6.38,6.38,0,0,0-3.56-.92c-2.24,0-4,1.14-5.36,3.4s-2,5.91-2,10.92q0,7.92,1.76,11a5.91,5.91,0,0,0,5.52,3.12,6,6,0,0,0,2.88-.72,6.85,6.85,0,0,0,2.36-2.08,10.9,10.9,0,0,0,1.6-3.28,14.15,14.15,0,0,0,.6-4.24V50.77a20.8,20.8,0,0,0-.36-3.84A11.38,11.38,0,0,0,278.22,43.49ZM429.59,40.9c0-1.57-.7-2.35-2.11-2.35q-3.6,0-8.1,5.28A30.33,30.33,0,0,0,413,56.72Q429.59,46.86,429.59,40.9ZM153.3,39.81a6.71,6.71,0,0,0-6.44,3.88q-2,3.89-2,10.76t2,10.72a7.15,7.15,0,0,0,12.76,0q2-3.91,2-10.72t-2-10.76A6.66,6.66,0,0,0,153.3,39.81ZM35.1,41.89a6.34,6.34,0,0,0,2.72-1,5.06,5.06,0,0,0,1.8-2.28,10.07,10.07,0,0,0,.64-4c0-2.34-.65-4-2-5a8.91,8.91,0,0,0-5.56-1.52H26.1V42.13h5.68A21.78,21.78,0,0,0,35.1,41.89Zm4.32,9.24a6.85,6.85,0,0,0-3.08-1.36,22.21,22.21,0,0,0-4.24-.36h-6V67.25h6.8a10.54,10.54,0,0,0,6.6-1.88q2.45-1.87,2.44-6.68A14.53,14.53,0,0,0,41.3,54,6.1,6.1,0,0,0,39.42,51.13Zm34.44-11q-6.87,0-8.48,8.4l15.44-.24Q80,40.13,73.86,40.13Zm548.58.77c0-1.57-.7-2.35-2.11-2.35-2.39,0-5.1,1.76-8.1,5.28a30.33,30.33,0,0,0-6.35,12.89Q622.44,46.86,622.44,40.9ZM.12.12v100h650V.12Zm50,65.77a13.52,13.52,0,0,1-3.56,4.84,15.6,15.6,0,0,1-5.48,3,22.76,22.76,0,0,1-7,1H17.22V20.53H34.1a18.66,18.66,0,0,1,5.64.88A15.78,15.78,0,0,1,44.66,24a12.88,12.88,0,0,1,3.48,4.16,11.93,11.93,0,0,1,1.32,5.68,11.58,11.58,0,0,1-2.2,7.32A14.22,14.22,0,0,1,42,45.41a13.55,13.55,0,0,1,6.76,4.8c1.74,2.29,2.6,5.33,2.6,9.12A15.87,15.87,0,0,1,50.1,65.89ZM89.86,55.25H65.14a25,25,0,0,0,.52,5.2,12.27,12.27,0,0,0,1.68,4.16,8.65,8.65,0,0,0,3,2.8,9.1,9.1,0,0,0,4.56,1,14.23,14.23,0,0,0,2.88-.32,31,31,0,0,0,3.28-.84A21,21,0,0,0,84.34,66a18.23,18.23,0,0,0,2.88-1.76h1.12v7.68a20.45,20.45,0,0,1-6.12,3,27,27,0,0,1-7.48.92,20.58,20.58,0,0,1-8.44-1.56,15.09,15.09,0,0,1-5.76-4.44A18.5,18.5,0,0,1,57.22,63a34.62,34.62,0,0,1-1-8.76,32.72,32.72,0,0,1,1.08-8.76,18.61,18.61,0,0,1,3.28-6.64,14.47,14.47,0,0,1,5.56-4.24,19.7,19.7,0,0,1,8-1.48,16.37,16.37,0,0,1,7,1.4,13.67,13.67,0,0,1,4.92,3.84,15.75,15.75,0,0,1,2.88,5.84,27.7,27.7,0,0,1,.92,7.32Zm27.52,19.68a48.64,48.64,0,0,1-2.48,6.2,18.33,18.33,0,0,1-2.8,4.28,9.53,9.53,0,0,1-3.44,2.48,11.4,11.4,0,0,1-4.4.8,24.24,24.24,0,0,1-3-.2,30.78,30.78,0,0,1-3.72-.76V80.85h1.12a15.38,15.38,0,0,0,2.44.68,11.58,11.58,0,0,0,2,.28,5.4,5.4,0,0,0,3.16-.92,7.33,7.33,0,0,0,2.28-3.72q.24-.8.48-1.56c.16-.5.48-1.56,1-3.16l-7.48-19.28q-3.87-10-7.48-19.2h9.52l8.48,24.56.72,3.92.88-3.6L122.42,34h9ZM169.5,62.81a19,19,0,0,1-2.8,6.76,13.76,13.76,0,0,1-5.24,4.56,17.75,17.75,0,0,1-8.16,1.68A18.28,18.28,0,0,1,145,74.13a13.81,13.81,0,0,1-5.28-4.56A18.73,18.73,0,0,1,137,62.81a41.55,41.55,0,0,1-.8-8.36,39.48,39.48,0,0,1,.84-8.36,19.14,19.14,0,0,1,2.8-6.76,13.91,13.91,0,0,1,5.24-4.56,18,18,0,0,1,8.24-1.68,17.34,17.34,0,0,1,8,1.68,14.22,14.22,0,0,1,5.24,4.56,18.92,18.92,0,0,1,2.88,6.8,37.77,37.77,0,0,1,.88,8.32A39.41,39.41,0,0,1,169.5,62.81Zm39.08,12h-8.16l-.24-5.44a11.87,11.87,0,0,1-4.36,4.72,10.22,10.22,0,0,1-5.24,1.52,14.52,14.52,0,0,1-6.6-1.28,9.71,9.71,0,0,1-4-3.6,14.31,14.31,0,0,1-1.92-5.48,46.75,46.75,0,0,1-.48-7V34h8.64v24.4q0,5.68,1.32,8c.88,1.52,2.42,2.28,4.6,2.28a5.64,5.64,0,0,0,3.08-.88,7.82,7.82,0,0,0,2.44-2.48,13.09,13.09,0,0,0,1.64-3.8,18.33,18.33,0,0,0,.6-4.84V34h8.64Zm40.24,0h-8.64V50.37q0-5.68-1.32-8t-4.6-2.28a5.66,5.66,0,0,0-3.08.88,8.14,8.14,0,0,0-2.44,2.48,13.62,13.62,0,0,0-1.64,3.8,18.38,18.38,0,0,0-.6,4.84V74.77h-8.64V34H226l.24,5.44a12.08,12.08,0,0,1,4.36-4.72,10.34,10.34,0,0,1,5.24-1.52,14.66,14.66,0,0,1,6.6,1.28,9.78,9.78,0,0,1,4,3.6,14.37,14.37,0,0,1,1.92,5.48,46.85,46.85,0,0,1,.48,7Zm39.6,0H280.5l-.56-5.2a9.11,9.11,0,0,1-3.88,4.72,9.6,9.6,0,0,1-4.84,1.52,14,14,0,0,1-7.44-1.76,12.53,12.53,0,0,1-4.52-4.76A21.69,21.69,0,0,1,257,62.41a51.06,51.06,0,0,1-.64-8.2,42.57,42.57,0,0,1,.68-7.52,22.58,22.58,0,0,1,2.32-6.76,14,14,0,0,1,4.4-4.88,12.05,12.05,0,0,1,6.92-1.88,9.78,9.78,0,0,1,5,1.44,11.43,11.43,0,0,1,4.16,4.4V18h8.64Zm61-1q-7,4.5-13.71,4.51c-3.9,0-6.91-1.12-9-3.36s-3.15-5.38-3.15-9.42q0-10.19,8.09-21.5t15-11.31q3.17,0,5.45,3.42a12.83,12.83,0,0,1,2.28,7.25,7.61,7.61,0,0,1-1,4c-.67,1.11-1.34,1.66-2,1.66q-2.26,0-3.21-4.57c-.7-3.28-1.72-4.92-3-4.92q-4.06,0-9.61,9.65T330,65.43q0,6.63,7.54,6.64,5.74,0,13.51-5.39c1.83-1.28,3.17-1.92,4-1.92s1.33.51,1.33,1.53Q356.43,69.26,349.43,73.77Zm54.09-30.06a2.78,2.78,0,0,1-2.33,1,4.11,4.11,0,0,1-3-1.44,4.1,4.1,0,0,0-2.93-1.45q-4,0-11.25,9.85a46.68,46.68,0,0,0-8.75,21.68c-.26,2-.75,3.37-1.48,4a4.49,4.49,0,0,1-3.09,1c-1.27,0-2.2-.95-2.77-2.85a37.46,37.46,0,0,1-.86-9.61c0-1.23.07-3.92.2-8.09a102.75,102.75,0,0,1,.93-11.91q.12-.75.39-3.48a20,20,0,0,1,.69-4.18A5,5,0,0,1,370.94,36a4.33,4.33,0,0,1,2.75-1,2.58,2.58,0,0,1,2.17.92,3.11,3.11,0,0,1,.72,2,17.1,17.1,0,0,1-.78,4.29,33.91,33.91,0,0,0-1.05,4.26,24.8,24.8,0,0,1-.43,2.78,73.89,73.89,0,0,0-.78,8.82l0,1.45v1c.26-.46.57-1.12.93-1.95A68.53,68.53,0,0,1,379.32,49a63.91,63.91,0,0,1,4.9-6.62,31,31,0,0,1,4.88-4.81,16.06,16.06,0,0,1,4-2.28,10.21,10.21,0,0,1,3.47-.65,7.69,7.69,0,0,1,5.55,2.06,6.41,6.41,0,0,1,2.15,4.78A3.51,3.51,0,0,1,403.52,43.71Zm29.61,28.71Q426.07,78,418.57,78q-6.29,0-9.7-3.71T405.45,64q0-11.17,7.54-21.25t16.48-10.08a6.44,6.44,0,0,1,6.64,6.53q0,6-5.89,11.52a75.87,75.87,0,0,1-15.79,10.82,3.13,3.13,0,0,0-2,2.73,7.18,7.18,0,0,0,1.88,5.2,7.34,7.34,0,0,0,5.54,2q8.4,0,17.15-9.29c.86-.86,1.51-1.29,2-1.29.83,0,1.25.66,1.25,2Q440.18,66.8,433.13,72.42Zm51.69,4.12a5.53,5.53,0,0,1-3.24,1.23c-2,0-3.66-1.38-5-4.14s-1.95-6.69-1.95-11.8a47.86,47.86,0,0,1-10.82,11q-5.36,3.68-9.81,3.67A6.66,6.66,0,0,1,448.85,74a9.63,9.63,0,0,1-2.19-6.52q0-10.27,9.18-22.13t18.24-11.86q3.29,0,4.89,3.75a1.68,1.68,0,0,0,1.6,1.25q3.12,0,3.12,2.43a19.54,19.54,0,0,1-.39,3.32q-2.1,11.52-2.11,16.25,0,9.45,3.6,11.32a2.72,2.72,0,0,1,1.71,2.31A3.29,3.29,0,0,1,484.82,76.54ZM524.75,41.4c-3.78.24-7.26.56-10.43,1s-4.89.76-5.14,1-1,3.37-2.36,9.29-2,9.77-2,11.54q0,4.31,1.14,5.73a4.07,4.07,0,0,0,3.4,1.42q3.36,0,9.33-5c1.54-1.38,2.72-2.07,3.56-2.07q1.68,0,1.68,1.8c0,1.88-1.81,4.3-5.41,7.29s-7.3,4.47-11.08,4.47q-9.45,0-9.45-11.13a62,62,0,0,1,1.95-12.47q1.92-8.39,1.92-10.07c0-.39-.32-.59-.94-.59l-4.06.35c-3.34,0-5-1.33-5-4a2,2,0,0,1,2.3-2.27h8a1.82,1.82,0,0,0,1.44-.74q.63-.73,1.84-5c.81-2.83,1.52-5.62,2.15-8.38s1.85-4.1,3.67-4.1a3.18,3.18,0,0,1,2.62,1.17,3.61,3.61,0,0,1,.93,2.19,50,50,0,0,1-1.4,5.58l-2.27,8.21q4-.31,7.58-.74a55.21,55.21,0,0,1,5.86-.4c2,0,3.23.19,3.75.55a2.18,2.18,0,0,1,.78,1.92Q529.16,41.14,524.75,41.4Zm19.84.63A146.67,146.67,0,0,0,541,56.79a68.74,68.74,0,0,0-.71,10.59,31.67,31.67,0,0,0,.82,6.68,5.28,5.28,0,0,1,.16,1.17c0,.47-.43,1.08-1.29,1.82a4.13,4.13,0,0,1-2.73,1.11q-3.8,0-3.79-7,0-7.18,3-22.74a55.52,55.52,0,0,0,1-6.68,9,9,0,0,1,.9-4.2,2.79,2.79,0,0,1,2.54-1.73,4.78,4.78,0,0,1,3.14,1,2.76,2.76,0,0,1,1.16,2.13A12.14,12.14,0,0,1,544.59,42Zm7-23.52a6.52,6.52,0,0,1-3,4.16,7.89,7.89,0,0,1-3.19,1.08c-.55,0-1-.59-1.25-1.76a10.56,10.56,0,0,0-.43-1.21,11.87,11.87,0,0,1-1.05-4.42,4.45,4.45,0,0,1,1.85-3.18,6.12,6.12,0,0,1,4.12-1.62,4.85,4.85,0,0,1,2.54.88c.94.58,1.41,1.15,1.41,1.7A17.27,17.27,0,0,1,551.6,18.51ZM594,41.68q-3,2-8.86,10.19a192,192,0,0,0-12.66,20.82Q569,79.1,567.13,79.1q-1.64,0-3.71-2.58.08-2.26-3.32-11.72-6.45-17.61-6.45-24.53c0-3.67,1.23-5.51,3.67-5.51s3.6,1.64,3.6,4.92a57.13,57.13,0,0,0,.25,6.2A64.18,64.18,0,0,0,563,53.81q1.61,5.76,3.51,10.68c.65,1.72,1.12,3,1.41,3.94.55-.83,1.25-2,2.11-3.43q6.87-11.56,11-17.82a78.35,78.35,0,0,1,6.66-9.1,15.47,15.47,0,0,1,3.79-3.41,5.67,5.67,0,0,1,2.46-.57,2.92,2.92,0,0,1,2.4,1.09,3.91,3.91,0,0,1,.88,2.5Q597.21,39.54,594,41.68Zm32,30.74Q618.93,78,611.43,78q-6.3,0-9.71-3.71T598.3,64q0-11.17,7.54-21.25t16.48-10.08A6.46,6.46,0,0,1,629,39.18q0,6-5.9,11.52a76,76,0,0,1-15.78,10.82,3.12,3.12,0,0,0-2,2.73,7.18,7.18,0,0,0,1.88,5.2,7.35,7.35,0,0,0,5.55,2q8.39,0,17.14-9.29c.86-.86,1.51-1.29,2-1.29.83,0,1.25.66,1.25,2Q633,66.8,626,72.42Z"/></svg>