<?xml version="1.0" encoding="utf-8"?>
<!-- Generator: Adobe Illustrator 26.3.1, SVG Export Plug-In . SVG Version: 6.00 Build 0)  -->
<svg version="1.1" id="레이어_1" xmlns="http://www.w3.org/2000/svg" xmlns:xlink="http://www.w3.org/1999/xlink" x="0px"
	 y="0px" viewBox="0 0 2305.7 500" style="enable-background:new 0 0 2305.7 500;" xml:space="preserve">
<style type="text/css">
	.st0{fill:#FFFFFF;}
</style>
<path class="st0" d="M1227.7,112.8h-13.2v251.9h13.2c66,0,112.8-30.2,112.8-127.6S1293.7,112.8,1227.7,112.8z M799.2,112.8H786
	v251.9h13.2c66,0,112.8-30.2,112.8-127.6S865.2,112.8,799.2,112.8L799.2,112.8z M1671,107.8h-2.2c-9.9,42.9-20.9,90.7-31.3,131.4
	l-8.8,34.6h83.6l-8.8-34.6C1692.4,198.6,1682,149.7,1671,107.8L1671,107.8z M2061.5,107.8h-2.2c-9.9,42.9-20.9,90.7-31.4,131.4
	l-8.8,34.6h83.6l-8.8-34.6C2082.9,198.6,2072.5,149.7,2061.5,107.8L2061.5,107.8z M0.5,0v500h2305.2V0L0.5,0z M186.6,443.9H88.1
	V34.7h98.4V443.9z M596.8,116.1H485.8v327.8h-98.5V116.1H276.8V34.7h320.1V116.1z M810.8,443.9H687.6V34.7h117.7
	c124.8,0,207.4,60,207.4,202.4S930.2,443.9,810.8,443.9z M1239.2,443.9H1116V34.7h117.7c124.8,0,207.4,60,207.4,202.4
	S1358.6,443.9,1239.2,443.9z M1754.6,443.9l-23.7-94h-121l-23.7,94h-100.1l127-409.2h117.7l127,409.2H1754.6z M2145.1,443.9
	l-23.6-94h-121l-23.7,94h-100.1l127-409.2h117.7l127,409.2H2145.1z"/>
</svg>
