<svg id="itddaa" data-name="Layer 1" xmlns="http://www.w3.org/2000/svg" xmlns:xlink="http://www.w3.org/1999/xlink" viewBox="0 0 778.4 346.96"><defs><style>.itddaa_cls-1,.itddaa_cls-3{fill:none;}.itddaa_cls-2{clip-path:url(#itddaa_clip-path);}.itddaa_cls-3{stroke:#fff;stroke-linecap:round;stroke-linejoin:round;stroke-width:30px;}</style><clipPath id="itddaa_clip-path" transform="translate(-0.08 0.09)"><path class="itddaa_cls-1" d="M760.88,161.27c-1.8-1.8-5.5-.3-10.9,4.6s-14,14.1-25.7,27.6c-7.3,8.4-13.5,14.9-18.6,19.7s-8,7.1-8.7,7.1c-.4-.7,0-3.8,1.1-9.3s3.1-15.8,6-31.1c2.2-10.9,3.5-18.2,3.8-21.9a15.6,15.6,0,0,0-1.6-9.3h.5c-2.6-5.8-5.6-8.5-9-7.9s-9.2,5-17.2,13.4c-4,3.6-6.6,6-7.6,7.1s-1.6,1.8-1.6,2.2c-1.1-2.2-3.6-3.9-7.4-5.2a25.74,25.74,0,0,0-10.7-1.4,43.43,43.43,0,0,0-8.1,4c-1.9-1.2-5.4.4-10.5,5-5.5,4.9-14,14.1-25.7,27.6-7.3,8.4-13.5,14.9-18.6,19.7s-8,7.1-8.7,7.1c-.4-.7,0-3.8,1.1-9.3s3.1-15.8,6-31.1c2.2-10.9,3.5-18.2,3.8-21.9a15.6,15.6,0,0,0-1.6-9.3h.5c-2.6-5.8-5.6-8.5-9-7.9s-9.2,5-17.2,13.4c-4,3.6-6.6,6-7.6,7.1s-1.6,1.8-1.6,2.2c-1.1-2.2-3.6-3.9-7.4-5.2a25.74,25.74,0,0,0-10.7-1.4,45.17,45.17,0,0,0-15,9.3,84.15,84.15,0,0,0-13.1,14.8,90.69,90.69,0,0,0-9.3,16.9q-3.6,8.7-3.6,15.3a19.83,19.83,0,0,0,.6,5.1c-6.3,5-11.6,8.3-15.8,9.9a19,19,0,0,1-17.5-1.4h.5c-10.2-6.6-16.9-20.9-20.2-43.2a110.44,110.44,0,0,1-1.1-13.1,25.57,25.57,0,0,1,2.7-10.7,67.34,67.34,0,0,1,9.6-13.9c4.5-5.5,11-13.3,19.4-23.5v.5l8.2-8.7q21.9-26.25,33.9-48.9t12-36.9c0-10.6-4.9-15.8-14.8-15.8-5.8,0-12.4,2.5-19.7,7.4s-14.6,11.6-21.9,19.9a212.6,212.6,0,0,0-21,29,197.42,197.42,0,0,0-16.7,33.9,87.24,87.24,0,0,0-4.1,11.7c-1.3,4.6-2.5,9.2-3.6,13.9s-2,9.4-2.7,13.9a76.9,76.9,0,0,0-1.1,10.7c-5.1-4.4-10.7-6-16.9-4.9a34.09,34.09,0,0,0-15.6,7.9,75.73,75.73,0,0,0-13.1,14.5,78.94,78.94,0,0,0-9,16.9,45.17,45.17,0,0,0-3.3,15.8,20.76,20.76,0,0,0,1.3,7.9c-10.2,9-18.2,14.7-24.3,17a19,19,0,0,1-17.5-1.4h.5c-10.2-6.6-16.9-20.9-20.2-43.2a110.44,110.44,0,0,1-1.1-13.1,25.57,25.57,0,0,1,2.7-10.7,67.34,67.34,0,0,1,9.6-13.9c4.5-5.5,11-13.3,19.4-23.5v.5l8.2-8.7q21.9-26.25,33.9-48.9t12-36.9c0-10.6-4.9-15.8-14.8-15.8-5.8,0-12.4,2.5-19.7,7.4s-14.6,11.6-21.9,19.9a212.6,212.6,0,0,0-21,29,197.42,197.42,0,0,0-16.7,33.9,87.24,87.24,0,0,0-4.1,11.7c-1.3,4.6-2.5,9.2-3.6,13.9s-2,9.4-2.7,13.9a76.9,76.9,0,0,0-1.1,10.7c-5.1-4.4-10.7-6-16.9-4.9a34.09,34.09,0,0,0-15.6,7.9,75.73,75.73,0,0,0-13.1,14.5,78.94,78.94,0,0,0-9,16.9,22.5,22.5,0,0,0-.8,2.4c-3.6,4.5-7.5,9.3-11.7,14.3-6.6,7.8-13.1,15.3-19.7,22.4s-12.7,13.3-18.3,18.6-9.7,8.6-12.3,10.1l-3.8,2.2v-4.9c0-6.9,1.2-15.7,3.6-26.2a278.05,278.05,0,0,1,9.8-33.3c4.2-11.7,8.9-23.5,14.2-35.5a288.17,288.17,0,0,1,17.2-33.3,89.28,89.28,0,0,1,6.6-12l18-1.1c12.7-1.1,20.5-2.5,23.2-4.1s.6-4.5-6.3-8.5c-2.2-1.5-8.4-1.8-18.6-1.1-4.4,1.1-7.1,2.2-8.2,3.3l13.5-15.7c3.6-5.1,7.1-9.6,10.4-13.7s6.4-7.8,9.3-11.5,5.6-7,8.2-10.1,3.8-5,3.8-5.7c0-1.5-1.4-3.6-4.1-6.3s-4.6-4.1-5.7-4.1c-2.9,0-8.2,4.6-15.8,13.7a419.48,419.48,0,0,0-25.7,35L205.38,98c-1.1.7-4.3,1.2-9.6,1.4-4.7.2-10.4.4-17.2.7q13.65-21.15,30.1-45.8l3.3-4.9c5.8-9.1,10.2-16.3,13.1-21.6s4.2-9.6,3.8-12.8a8.67,8.67,0,0,0-2.7-6.8,10.4,10.4,0,0,0-7.1-2.5c-4,0-9.7,2.7-17.2,8.2A256,256,0,0,0,177,35.17c-9.1,8.7-18.4,18.2-27.9,28.4s-18.1,20.2-25.9,30-14.2,18.6-19.1,26.2-7.4,13.1-7.4,16.4q0,6,6,8.7c.7,1.1,2.4,1.6,4.9,1.6,1.8,0,5.1-3.1,9.8-9.3s10.7-13.8,18-22.9c5.8-7.6,12-15.7,18.6-24s13-16.4,19.4-24,12.3-14.4,17.8-20.2,9.8-9.6,13.1-11.5c.4.7-1.5,4-5.5,9.8s-9.1,13.8-15.3,24c-6.1,9.6-12.9,20.4-20.2,32.3-7.2.7-11.9,1.4-14.3,2.1s-3.9,2-4.2,3.8c-.9,5.7,2.3,8.8,9.3,9.1-6.6,10.7-13.3,21.8-20.2,33.3q-13.65,22.65-27.6,46.2t-25.9,45.3c-5.5,10.6-9.8,18.8-13.1,24.9s-6,10.8-8.2,14.5a39.49,39.49,0,0,1-5.5,7.6,25.73,25.73,0,0,1-4.9,3.8,170.43,170.43,0,0,0-22.1,16.9c-6.4,5.8-9.6,9.6-9.6,11.5a9.94,9.94,0,0,0,2.5,7.1,8.67,8.67,0,0,0,6.8,2.7c7.3,0,13.6-1.8,18.8-5.5a108.44,108.44,0,0,0,15.6-13.1c4-3.6,8.6-7.6,13.9-12a147.2,147.2,0,0,1,17.8-12.6h-.5c6.2-3.3,11.5-5.9,15.8-7.9s8-3.7,10.9-5.2c2.9-1.1,4.5-1.9,4.9-2.5s.5-1.7.5-3.6a5,5,0,0,0-2.7-4.4,13.58,13.58,0,0,0-7.1-1.6c-2.9.4-7.6,1.7-14.2,4.1s-12,4.5-16.4,6.3c4.4-11.3,9.6-23.4,15.8-36.3s14.1-27.9,23.8-44.8,21.4-36.5,35.2-58.7q5.4-8.7,11.4-18l2-.3c4.5-.5,9.2-1,13.9-1.4l12.6-1.1a21.84,21.84,0,0,1-2.7,4.4,22.58,22.58,0,0,0-2.7,3.8,200.75,200.75,0,0,0-10.1,17.5c-3.8,7.3-7.7,15-11.7,23.2s-7.7,16.2-11.2,24-6.1,14.5-7.9,19.9a173.35,173.35,0,0,0-6.6,24.6,116.64,116.64,0,0,0-2.2,21.3c0,10.9,2,18.4,5.9,22.4v-.5c2.5,3.3,6.2,4.9,11.2,4.9a27.59,27.59,0,0,0,5.4-.5,15.16,15.16,0,0,0,4.9-2.5,78.65,78.65,0,0,0,7.1-6c2.9-2.7,6.6-6.3,10.9-10.7,6.9-7.3,14-15.1,21.3-23.5,6.8-7.8,13.1-15.3,18.8-22.3q3,7.5,12.9,7.5,3.3,0,9.3-3.6c4-2.4,10.2-8.3,18.6-17.8l15.8-16.4a66.43,66.43,0,0,0,2.7,18.6,84.43,84.43,0,0,0,7.6,17.8,75.19,75.19,0,0,0,11.2,15,48.1,48.1,0,0,0,12.8,9.8q10.35,4.95,18,3.6c5.1-.9,11.8-3.9,20.2-9a118.83,118.83,0,0,0,10.7-8.2c3.8-3.3,7.4-6.6,10.7-9.8h1.1q3.3,0,9.3-3.6c4-2.4,10.2-8.3,18.6-17.8l15.8-16.4a66.43,66.43,0,0,0,2.7,18.6,84.43,84.43,0,0,0,7.6,17.8,75.19,75.19,0,0,0,11.2,15,48.1,48.1,0,0,0,12.8,9.8q10.35,4.95,18,3.6c5.1-.9,11.8-3.9,20.2-9a118.83,118.83,0,0,0,10.7-8.2c.3-.2.5-.5.8-.7a24.52,24.52,0,0,0,2.7.2c3.6,0,8.1-2.4,13.4-7.1s14.1-14,26.5-27.9c1.8-2.2,3.8-4.6,6-7.4s4.7-5.5,7.6-8.5l4.4-4.9-1.1,4.4a223.19,223.19,0,0,0-5.7,22.9,93.52,93.52,0,0,0-1.9,18c0,8.7,2,15.7,6,20.8,2.2,2.9,4.4,4.7,6.6,5.5s5,.1,8.5-1.9,7.7-5.7,12.8-10.9c4.8-4.9,11-11.6,18.7-19.9a16.2,16.2,0,0,0-.1,2.2c0,4.4,1,7.9,3,10.7s5.6,4.1,10.7,4.1c3.6,0,8.1-2.4,13.4-7.1s14.1-14,26.5-27.9c1.8-2.2,3.8-4.6,6-7.4s4.7-5.5,7.6-8.5L684,172l-1.1,4.4a223.19,223.19,0,0,0-5.7,22.9,93.52,93.52,0,0,0-1.9,18c0,8.7,2,15.7,6,20.8,2.2,2.9,4.4,4.7,6.6,5.5s5,.1,8.5-1.9,7.7-5.7,12.8-10.9,11.8-12.5,20.2-21.6c8-9.1,14.3-16.5,18.8-22.1a141.37,141.37,0,0,0,10.1-13.9c2.2-3.6,3.5-6.3,3.8-7.9A4.53,4.53,0,0,0,760.88,161.27Zm-306.2-50.2c2.7-7.3,5.8-14.7,9.3-22.1s7.1-14.8,10.9-21.9a175.14,175.14,0,0,1,11.2-18.3,154.48,154.48,0,0,1,15.8-15.6c5.5-4.5,9.3-6.8,11.5-6.8,1.8,0,1.6,3-.5,9a202,202,0,0,1-9.8,21.6,193.43,193.43,0,0,1-9.6,18,151.6,151.6,0,0,1-12.8,18,54.08,54.08,0,0,1-4.4,4.9c-1.1,1.5-2.1,2.7-3,3.8a22.66,22.66,0,0,1-2.5,2.7l-16.4,19.1-5.5,6.6A134,134,0,0,1,454.68,111.07Zm-138.8,0c2.7-7.3,5.8-14.7,9.3-22.1s7.1-14.8,10.9-21.9a175.14,175.14,0,0,1,11.2-18.3,154.48,154.48,0,0,1,15.8-15.6c5.5-4.5,9.3-6.8,11.5-6.8,1.8,0,1.6,3-.5,9a202,202,0,0,1-9.8,21.6,193.43,193.43,0,0,1-9.6,18,151.6,151.6,0,0,1-12.8,18,54.08,54.08,0,0,1-4.4,4.9c-1.1,1.5-2.1,2.7-3,3.8a22.66,22.66,0,0,1-2.5,2.7l-16.4,19.1-5.5,6.6A148.58,148.58,0,0,1,315.88,111.07Zm-61.4,79.2c-.7,1.5-1.2,2.2-1.4,2.2s.1-.7.8-2.2l.5-1.1v1.1Zm15.5-17.5c-.9,1.1-3.2,3.5-6.8,7.1h-.5l-6,5.5,8.7-9.8,5.5-5.5C271.18,170.77,271,171.67,270,172.77Zm123.2,17.5c-.7,1.5-1.2,2.2-1.4,2.2s.1-.7.8-2.2l.5-1.1v1.1Zm15.6-17.5c-.9,1.1-3.2,3.5-6.8,7.1h-.5l-6,5.5,8.7-9.8,5.5-5.5Q410.13,171.12,408.78,172.77Zm130.6,8.7a73.33,73.33,0,0,1-6.8,8.2v-.5l-5.5,5.5c1.5-1.8,2.9-3.6,4.4-5.5s2.7-3.5,3.8-4.9c2.2-2.5,3.6-4.2,4.1-4.9a2.22,2.22,0,0,0,.3-2.2A4.18,4.18,0,0,1,539.38,181.47Zm98,19.2c.1-.1.2-.3.3-.4l.3-.1C638,200.47,637.78,200.67,637.38,200.67Zm17.2-19.2a73.33,73.33,0,0,1-6.8,8.2v-.5l-5.5,5.5c1.5-1.8,2.9-3.6,4.4-5.5s2.7-3.5,3.8-4.9c2.2-2.5,3.6-4.2,4.1-4.9a2.22,2.22,0,0,0,.3-2.2A4.18,4.18,0,0,1,654.58,181.47Z"/></clipPath></defs><g class="itddaa_cls-2"><line class="itddaa_cls-3" x1="148.3" y1="108.06" x2="259.9" y2="102.96"/><path class="itddaa_cls-3" d="M95.78,147.57s57-73.2,71.2-88.2,43.5-42.3,48.7-44.3,0,14.8-22.9,50.2-126.3,215.2-131,225.5-46.7,41.1-46.7,41.1,65.7-53.8,94.2-61.7,19-7.1,19-7.1" transform="translate(-0.08 0.09)"/><path class="itddaa_cls-3" d="M265.48,34.37s-57.4,62.5-75.2,102.9-33.2,61.3-36,97.3,10.7,34.8,10.7,34.8l72.4-76.7" transform="translate(-0.08 0.09)"/><path class="itddaa_cls-3" d="M288.08,161.37s-6.7-14.2-23.3-4-24.9,26.1-26.9,32.4,0,21,7.5,17.8,42.7-37.2,42.7-37.2S372,73.87,377.48,58s12.6-43.3,1.6-40.6-37.6,8.3-60.1,55.4-28.9,103.6-21.4,123.8,19.8,43.1,34.8,40.4,56.2-34.8,64.5-44.3" transform="translate(-0.08 0.09)"/><path class="itddaa_cls-3" d="M430.08,163.77s-12.3-15.8-25.7-7.1-24.1,16.6-27.7,32.4,23.3,5.9,38.8-8.3,79.1-86.2,90.2-104.8,23.7-43.9,16.6-52.2S495,13.47,480,37.27s-35.6,57.8-43.1,88.2-12.3,78.7,10.7,97.3,36.8,18.6,53.8,5.1" transform="translate(-0.08 0.09)"/><path class="itddaa_cls-3" d="M554.68,170.87s-7.1-14.2-22.5-2.4-24.1,20.6-24.9,34.4,9.5,17,22.2,4.4,41.9-52.2,49.1-56.2-4.7,59.7-5.9,65.7-5.1,20.6,2.4,20.2,45.1-45.1,45.1-45.1" transform="translate(-0.08 0.09)"/><path class="itddaa_cls-3" d="M675,172.07s-7.5-13.5-21.4-7.5-42.3,38.8-40,45.5,14.2,13.8,24.1,2.8,55.4-61.3,55.4-61.3-11.1,79.5-6.3,82.3,76.7-75.2,76.7-75.2" transform="translate(-0.08 0.09)"/></g></svg>