<svg id="레이어_1" data-name="레이어 1" xmlns="http://www.w3.org/2000/svg" xmlns:xlink="http://www.w3.org/1999/xlink" viewBox="0 0 609.4 379.97"><defs><style>.cls-1,.cls-3,.cls-5{fill:none;}.cls-2{clip-path:url(#clip-path);}.cls-3,.cls-5{stroke:#fff;stroke-linecap:round;stroke-linejoin:round;}.cls-3{stroke-width:24px;}.cls-4{clip-path:url(#clip-path-2);}.cls-5{stroke-width:31px;}</style><clipPath id="clip-path"><path class="cls-1" d="M262.2,118.13c2.4-.7,5.6-3.9,9.6-9.4,5.1-6.6,7.5-11.9,7.1-15.7s-3.5-5.8-9.4-5.8c-2.2,0-4.9,1.8-8,5.2a35.43,35.43,0,0,0-6.9,11.3,22.88,22.88,0,0,0-1.1,5.8c0,1.3.7,2.8,2.2,4.7C257.7,117.53,259.8,118.83,262.2,118.13Z"/></clipPath><clipPath id="clip-path-2"><path class="cls-1" d="M586.3,156.13q-9.9,0-41.9,25.4l-16,11.6-1.7-9.4c-1.8-8.4-2-14.5-.5-18.2s5.3-7.7,11.6-12.1c3.3-1.8,5.4-3,6.3-3.3s1.7.2,2.5,1.7a3.9,3.9,0,0,0,4.4,2.5,9.06,9.06,0,0,0,6.1-3.6,12.25,12.25,0,0,0,3.3-7.7c.3-3.3-.2-5.9-1.7-7.7-2.2-2.2-5.4-2.8-9.7-1.7a48.67,48.67,0,0,0-13.2,5.8,71.31,71.31,0,0,0-13,10.2c-4,4-6.6,8.1-7.7,12.1a21.08,21.08,0,0,0-.5,8.3c.4,2.2.9,4.3,1.4,6.5a63.79,63.79,0,0,0-12.1,2q-18.45,4.65-45.5,18.5a57.34,57.34,0,0,1-8.3,3.9q-3.3,1-3.3,0a12.47,12.47,0,0,1,1.4-4.1q1.35-3,3-6.3c1.8-3.7,3.6-7.6,5.2-11.9s3.2-8.4,4.7-12.4a96.48,96.48,0,0,0,3.3-10.8,36.73,36.73,0,0,0,1.1-7.4c0-5.9-1.3-8.6-3.9-8s-7.6,4.5-14.9,11.9c-5.2,5.1-8.7,8.4-10.5,9.6s-2.9,1.2-3.3-.3c-.8-1.8-2.9-3.4-6.6-4.7a17.65,17.65,0,0,0-9.9-.8q-9.9,2.7-20.7,14.1c-1.3,1.4-2.6,2.8-3.8,4.3-1.5,1.2-3,2.4-4.7,3.7-11.7,9.6-20.7,16.1-27,19.6s-10.7,4.3-13.2,2.5c-1.1-.7-1.8-2.5-2.2-5.2s-.7-8.2-1.1-16.3a134,134,0,0,0-1.8-17.9c-.8-3.9-2.5-5.6-5.1-5.2s-6.6,2.9-11.6,7.5-11.9,11.3-20.8,20.1c-6.3,6.6-11.7,12.2-16.3,16.8s-6.9,6.7-6.9,6.3c0-1.1,2-5.5,6.1-13s8.1-14.8,12.1-21.8c2.6-4,4.8-7.7,6.6-11s2.9-5.3,3.3-6.1c.7-2.2.1-4.6-1.9-7.2s-4.1-3.7-6.3-3.3c-1.5.4-3.5,1.8-6.1,4.1a65.18,65.18,0,0,0-8,9.4c-2.8,3.9-5.7,8.3-8.8,13.2a134.15,134.15,0,0,0-7.4,13.4c-.4.2-.7.4-1.1.6-8.4,5.6-17,11.1-25.9,16.6s-15.8,9.2-21,11c-4,1.1-5.1-.7-3.3-5.5s6.1-13.2,12.7-25.4c5.9-11.4,9.1-19,9.7-22.9s-1.2-5.8-5.2-5.8c-2.9,0-7,3.2-12.1,9.6a128.84,128.84,0,0,0-13.3,21.4c-.3.3-.7.6-1,.9q-35.85,31.5-35.9-18.2a61.15,61.15,0,0,0-.5-9.6,4.9,4.9,0,0,0-2.8-3.6c-2.9-1.9-6.7-1.1-11.3,2.2s-11,9.2-19,17.7l-15.5,16,9.9-19.3c2.2-4.4,4.2-8.2,6.1-11.3a92,92,0,0,1,6.6-9.7c2.6-3.3,5.8-7.1,9.7-11.3s9.1-9.6,15.7-16.3q19.35-19.8,34.5-38.3c8.8-10.6,17.1-21.7,24.8-33.1,6.4-9.7,10.6-17.8,12.7-24.2s1.4-10.8-1.9-13c-3-1.8-6.7-1.5-11.3,1.1s-11.1,8.1-19.6,16.5A340.54,340.54,0,0,0,180.6,67c-11.3,14.9-22,30.6-32.4,46.9s-19.7,32.7-28.1,49.1c-5.5,10.6-10,20.4-13.6,29.3-2.9,3.6-6,7.4-9.2,11.3-6.8,8.1-13.6,15.7-20.4,22.9s-13.1,13.5-19,19-10.5,9.1-13.8,11l-7.7,4.4v-9.4q0-11.1,3.9-27.6a358.65,358.65,0,0,1,10.2-35c4.2-12.3,9.2-24.7,14.9-37.2A344.25,344.25,0,0,1,83.2,117l7.7-13.8,19.9-1.1c9.9-.7,16.1-1.6,18.7-2.7s1.8-2.8-2.2-5q-3.3-1.65-17.1-.6c-5.9.7-9.5,1-10.8.8s-1.6-.8-.8-1.9l18-23.2c5.7-7.4,10.9-13.8,15.7-19.3,3.3-3.7,6.1-7,8.5-10s3.6-4.6,3.6-5c0-1.1-1-2.7-3-4.7s-3.4-3-4.1-3c-2.6,0-7.5,4.4-14.9,13s-16.2,20.7-26.5,36.1c-3,4-5.5,7.7-7.7,11s-3.5,5.3-3.9,6.1c-.8.7-4,1.3-9.9,1.6s-13.2.7-22.1,1.1c-7,.4-12.5.6-16.5.8s-7.1.4-9.1.6a8.39,8.39,0,0,0-4.1,1.1,2.31,2.31,0,0,0-1.1,2c-1.1,5.1,3,7,12.2,5.5a67.48,67.48,0,0,1,11.8-1.9c5.3-.5,10.6-1,15.7-1.4l18.2-1.6-8.8,13.8c-3.8,5.9-7.3,12-10.5,18.2-4.1,7.7-8.1,15.8-12.1,24.3s-7.8,16.7-11.3,24.8-6.2,14.7-8,19.9c-5.2,15.5-8.1,29.5-8.8,42.2s1.1,21,5.5,25.1q3.3,3.9,9.9,3.9a16.11,16.11,0,0,0,4.4-.6,15.65,15.65,0,0,0,5-2.5,50.18,50.18,0,0,0,6.9-6.1l10.8-10.8c7-7.4,14.3-15.3,22.1-23.8,5.3-5.8,10.2-11.4,14.8-16.8a64.35,64.35,0,0,0-2.9,11.3c-.5,3.7.1,5.9,1.9,6.6a8.69,8.69,0,0,0,4.1,1.1c1.3,0,3-.9,5-2.8a76.63,76.63,0,0,0,8-9.1q4.95-6.3,13.8-17.4c9.5-12.5,17.6-22.1,24.2-28.7s9.9-8.6,9.9-6.1c.7,18.7,5.9,30.7,15.4,35.8,7,3.8,15,3.3,24-1.4a38,38,0,0,0-1.6,7c-.5,5.1,1,9.2,4.7,12.1a16.22,16.22,0,0,0,9.7,3.3c3.5,0,8.4-1.5,14.6-4.4a160.2,160.2,0,0,0,18.5-10.5c5-3.3,9.9-6.6,14.5-9.9-4.5,10.1-7.4,17.8-8.7,23.2-1.8,7.7-.9,13.2,2.8,16.5,3.7,4,7.5,4.5,11.6,1.3s11.6-11.6,22.6-25.6a148.1,148.1,0,0,1,14.1-18.5c5.3-6.1,9.5-10.6,12.4-13.5l11.1-11-.6,12.1c-1.1,15.4,2.9,24.8,12,28.1,3,1.5,5.4,2.2,7,2.2a21.91,21.91,0,0,0,6.3-1.1c3.3-1.1,8.6-4.2,15.8-9.3,3.3-2.4,6.5-4.8,9.8-7.3-2.5,7.6-3.2,13.7-2.1,18.4,1.3,5.1,4.9,7.7,10.8,7.7a10,10,0,0,0,5-1.7,62.37,62.37,0,0,0,7.2-5.5,137.57,137.57,0,0,0,10.8-10.8c4.2-4.6,9.4-10.4,15.7-17.4,3.3-4,6.8-8.1,10.5-12.1s6.6-7.2,8.8-9.4l6.7-7.7-4.4,13.8a154,154,0,0,1-10.8,25.9c-4.2,8.1-7.4,13.1-9.6,14.9-1.1.7-4,2.5-8.8,5.5s-10,6.4-15.5,10.4c-8.4,5.5-16.9,11.6-25.4,18.2s-16.5,13.4-24.3,20.4-14.8,14-21.2,21A181.22,181.22,0,0,0,317,308c-7.7,11.8-13.2,22.3-16.5,31.7s-4,16.8-2.2,22.3a33.33,33.33,0,0,0,2.5,5,15.94,15.94,0,0,0,2.5,3.3c11.4,6.2,27.6-.9,48.5-21.5,11.8-11.4,23.4-25.5,35-42.2s24.6-38.4,38.9-64.9l14.9-26.5,13.8-7.2c9.2-4.4,18.9-8.6,29.2-12.7a260.08,260.08,0,0,1,29.8-9.9c1.8-.5,3.6-1,5.4-1.4l4,13-22.6,22.6c-15.8,15.5-26.1,27-30.9,34.8s-5.1,13.6-1.1,17.6c2.6,2.9,6.7,3.8,12.4,2.5a60.63,60.63,0,0,0,17.9-7.7,105.25,105.25,0,0,0,18.2-14.3,61.12,61.12,0,0,0,13.2-17.9,43.23,43.23,0,0,0,4.1-10.5c.6-2.6.5-6.6-.3-12.1l-1.1-12.7,19.3-14.4a100.08,100.08,0,0,1,11.3-8,100.43,100.43,0,0,0,9.7-6.3c8.5-6.2,14.2-10.3,17.1-12.1C592.5,157,591.4,156.13,586.3,156.13Zm-418.4-46c2-3.5,4.9-8,8.5-13.5s7.8-11.4,12.2-17.6,8.6-12.1,12.6-17.7q8.85-11.1,17.4-20.7c4.8-5.5,9.9-10.7,15.2-15.7l3.9-3.3-1.7,5q-2.25,5.55-13.2,20.1-11.1,14.7-33.1,41.1c-6.3,7.3-11.8,13.8-16.5,19.3s-7.4,8.3-7.7,8.3S165.9,113.63,167.9,110.13Zm252.6,68.4c-.9,1.7-3.8,4.9-8.5,9.7-2.9,3-5.8,5.7-8.6,8.2a46.28,46.28,0,0,1-5.8,5c-1.8.7-2.6.8-2.2.3a67.58,67.58,0,0,0,3.3-6.4A55.57,55.57,0,0,1,404,187a77.86,77.86,0,0,1,6.9-8.3q6-6,7.5-6.9c.9-.5,1.7.1,2.5,1.9A5.4,5.4,0,0,1,420.5,178.53Zm-6.1,62.8c-4.2,7.2-9.3,15.3-15.2,24.3s-12,18.2-18.5,27.6-12,17-16.8,22.9a155.71,155.71,0,0,1-19.9,20.7,94.12,94.12,0,0,1-20.4,14.1c-7.4,4-11.9,5.2-13.5,3.3s-1-7,1.9-15.4a121,121,0,0,1,11.1-22.9c4.4-7.2,10.9-15.6,19.3-25.1,4.1-4.4,7.8-8.5,11.3-12.1s7.1-7.3,11-10.8,8.1-7,12.7-10.5,10-7.4,16.3-11.9c10.7-7.4,17.8-12.2,21.5-14.6s5.5-3.2,5.5-2.5Q420.85,230.68,414.4,241.33Zm107.3-16.2h0c-2.2,4.8-6.3,9.9-12.4,15.4a76,76,0,0,1-18.5,12.7c-6.6,3.7-10.7,5.5-12.1,5.5q-1.65,0,.3-3c1.3-2,3.1-4.7,5.5-8a136.12,136.12,0,0,1,9.1-11c3.7-4.1,7.5-8.1,11.6-12.1l18.2-18.8,1.1,6.6A28,28,0,0,1,521.7,225.13Z"/></clipPath></defs><g class="cls-2"><line class="cls-3" x1="277.4" y1="85.73" x2="253.3" y2="119.33"/></g><g class="cls-4"><line class="cls-5" x1="15.5" y1="103.13" x2="137" y2="97.23"/><path class="cls-5" d="M144.5,25.23s-15.4,15-25.3,28.9-29.7,39.2-41.5,60.5-23.7,40-30.9,59.3-15.8,36.8-17,58.2-1.2,36.4,4.7,34.8,37.6-29.3,53.4-45.1"/><path class="cls-5" d="M102.2,204.43s48.3-68,58.2-77.9,46.3-49.8,57-64.5,25.2-33.3,25.2-39.6-5.9-9.5-11.9-4.4-39.2,43.1-53.4,64.9-41.9,68.4-56.2,100.9-16.6,41.9-16.6,41.9,24.5-32,38.4-47.1,25.3-24.5,25.7-19-1.2,28.1,4.7,32.8,11.1,12.7,20.2,9.9,16.2-8.7,21.8-14.6,19-22.9,19-22.9-23.7,35.2-23.7,42.7,5.5,14.2,12.3,11.1,34.4-15,43.9-25.7,30.1-38,30.1-38l-35.2,78.3s61.3-63.3,65.7-66.1,7.5,26.1,10.7,32,5.9,12.7,17.8,7.1,30.5-25.7,44.7-32.4"/><path class="cls-5" d="M430.1,171.13s0-10.7-7.5-8.7-16.6,4.7-24.1,17.8-13.1,22.5-11.1,29.3,12.7-1.6,12.7-1.6l61.3-62.1s-13.8,44.7-28.9,74-29.3,55-59.7,95.3-47.9,47.5-57.4,49.1-11.9-5.1-11.9-11.9,7.5-35.6,21.8-50.2,40-43.1,61.7-57.4,59.7-40,78.7-47.1,52.6-18.2,52.6-18.2"/><path class="cls-5" d="M551.6,149.43s2.4-11.1-2.8-9.1-13.1,3.2-19,9.9-10.3,9.1-9.1,19,8.7,36.4,9.1,44.3-4.7,23.3-13.5,32.8-28.1,18.6-35.6,21-10.3-6.3-7.5-11.1,26.9-34,37.6-43.1,83.1-61.3,83.1-61.3"/></g></svg>